<?xml version="1.0" encoding="UTF-8" standalone="no"?><svg xmlns="http://www.w3.org/2000/svg" xmlns:xlink="http://www.w3.org/1999/xlink" contentStyleType="text/css" height="292px" preserveAspectRatio="none" style="width:556px;height:292px;background:#FFFFFF;" version="1.1" viewBox="0 0 556 292" width="556px" zoomAndPan="magnify"><defs/><g><line style="stroke:#181818;stroke-width:0.5;stroke-dasharray:5.0,5.0;" x1="35" x2="35" y1="36.2969" y2="257.0938"/><line style="stroke:#181818;stroke-width:0.5;stroke-dasharray:5.0,5.0;" x1="171.5" x2="171.5" y1="36.2969" y2="257.0938"/><line style="stroke:#181818;stroke-width:0.5;stroke-dasharray:5.0,5.0;" x1="391.5" x2="391.5" y1="36.2969" y2="257.0938"/><rect fill="#E2E2F0" height="30.2969" rx="10" ry="10" style="stroke:#181818;stroke-width:0.5;" width="61" x="5" y="5"/><text fill="#000000" font-family="sans-serif" font-size="14" lengthAdjust="spacing" textLength="47" x="12" y="24.9951">Zotero</text><rect fill="#E2E2F0" height="30.2969" rx="10" ry="10" style="stroke:#181818;stroke-width:0.5;" width="61" x="5" y="256.0938"/><text fill="#000000" font-family="sans-serif" font-size="14" lengthAdjust="spacing" textLength="47" x="12" y="276.0889">Zotero</text><rect fill="#E2E2F0" height="30.2969" rx="10" ry="10" style="stroke:#181818;stroke-width:0.5;" width="50" x="146.5" y="5"/><text fill="#000000" font-family="sans-serif" font-size="14" lengthAdjust="spacing" textLength="36" x="153.5" y="24.9951">Koofr</text><rect fill="#E2E2F0" height="30.2969" rx="10" ry="10" style="stroke:#181818;stroke-width:0.5;" width="50" x="146.5" y="256.0938"/><text fill="#000000" font-family="sans-serif" font-size="14" lengthAdjust="spacing" textLength="36" x="153.5" y="276.0889">Koofr</text><rect fill="#E2E2F0" height="30.2969" rx="10" ry="10" style="stroke:#181818;stroke-width:0.5;" width="54" x="364.5" y="5"/><text fill="#000000" font-family="sans-serif" font-size="14" lengthAdjust="spacing" textLength="40" x="371.5" y="24.9951">Cloud</text><rect fill="#E2E2F0" height="30.2969" rx="10" ry="10" style="stroke:#181818;stroke-width:0.5;" width="54" x="364.5" y="256.0938"/><text fill="#000000" font-family="sans-serif" font-size="14" lengthAdjust="spacing" textLength="40" x="371.5" y="276.0889">Cloud</text><polygon fill="#181818" points="159.5,63.4297,169.5,67.4297,159.5,71.4297,163.5,67.4297" style="stroke:#181818;stroke-width:1.0;"/><line style="stroke:#181818;stroke-width:1.0;stroke-dasharray:2.0,2.0;" x1="35.5" x2="165.5" y1="67.4297" y2="67.4297"/><text fill="#000000" font-family="sans-serif" font-size="13" lengthAdjust="spacing" textLength="101" x="42.5" y="62.3638">1. 注册Koofr账号</text><polygon fill="#181818" points="379.5,92.5625,389.5,96.5625,379.5,100.5625,383.5,96.5625" style="stroke:#181818;stroke-width:1.0;"/><line style="stroke:#181818;stroke-width:1.0;stroke-dasharray:2.0,2.0;" x1="171.5" x2="385.5" y1="96.5625" y2="96.5625"/><text fill="#000000" font-family="sans-serif" font-size="13" lengthAdjust="spacing" textLength="196" x="178.5" y="91.4966">2. 绑定Google Drive或OneDrive</text><polygon fill="#181818" points="379.5,121.6953,389.5,125.6953,379.5,129.6953,383.5,125.6953" style="stroke:#181818;stroke-width:1.0;"/><line style="stroke:#181818;stroke-width:1.0;stroke-dasharray:2.0,2.0;" x1="171.5" x2="385.5" y1="125.6953" y2="125.6953"/><text fill="#000000" font-family="sans-serif" font-size="13" lengthAdjust="spacing" textLength="150" x="178.5" y="120.6294">3. 修改Google Drive名称</text><line style="stroke:#181818;stroke-width:1.0;stroke-dasharray:2.0,2.0;" x1="391.5" x2="433.5" y1="154.8281" y2="154.8281"/><line style="stroke:#181818;stroke-width:1.0;stroke-dasharray:2.0,2.0;" x1="433.5" x2="433.5" y1="154.8281" y2="167.8281"/><line style="stroke:#181818;stroke-width:1.0;stroke-dasharray:2.0,2.0;" x1="392.5" x2="433.5" y1="167.8281" y2="167.8281"/><polygon fill="#181818" points="402.5,163.8281,392.5,167.8281,402.5,171.8281,398.5,167.8281" style="stroke:#181818;stroke-width:1.0;"/><text fill="#000000" font-family="sans-serif" font-size="13" lengthAdjust="spacing" textLength="151" x="398.5" y="149.7622">4. 创建Zotero备份文件夹</text><line style="stroke:#181818;stroke-width:1.0;stroke-dasharray:2.0,2.0;" x1="171.5" x2="213.5" y1="196.9609" y2="196.9609"/><line style="stroke:#181818;stroke-width:1.0;stroke-dasharray:2.0,2.0;" x1="213.5" x2="213.5" y1="196.9609" y2="209.9609"/><line style="stroke:#181818;stroke-width:1.0;stroke-dasharray:2.0,2.0;" x1="172.5" x2="213.5" y1="209.9609" y2="209.9609"/><polygon fill="#181818" points="182.5,205.9609,172.5,209.9609,182.5,213.9609,178.5,209.9609" style="stroke:#181818;stroke-width:1.0;"/><text fill="#000000" font-family="sans-serif" font-size="13" lengthAdjust="spacing" textLength="93" x="178.5" y="191.895">5. 生成App密码</text><polygon fill="#181818" points="159.5,235.0938,169.5,239.0938,159.5,243.0938,163.5,239.0938" style="stroke:#181818;stroke-width:1.0;"/><line style="stroke:#181818;stroke-width:1.0;stroke-dasharray:2.0,2.0;" x1="35.5" x2="165.5" y1="239.0938" y2="239.0938"/><text fill="#000000" font-family="sans-serif" font-size="13" lengthAdjust="spacing" textLength="112" x="42.5" y="234.0278">6. 配置Zotero同步</text></g></svg>